<svg width="600" height="91" viewBox="0 0 600 91" fill="none" xmlns="http://www.w3.org/2000/svg">
<path d="M29.5599 45.5599H53.1425C56.7289 45.5599 59.7537 44.3968 62.217 42.0707C64.7165 39.7445 65.9663 36.437 65.9663 32.1482C65.9663 28.9861 64.6622 26.1511 62.054 23.6432C59.4458 21.099 56.4753 19.8269 53.1425 19.8269H19.5617V90.4836H15.6493V15.9015H53.1425C57.562 15.9015 61.4563 17.5552 64.8252 20.8627C68.1942 24.1339 69.8786 27.8957 69.8786 32.1482C69.8786 37.382 68.2485 41.58 64.9882 44.7421C61.7279 47.9042 57.7794 49.4853 53.1425 49.4853H29.5599V45.5599ZM29.5599 53.4106H53.1425C58.7937 53.4106 63.6479 51.4298 67.7051 47.4681C71.7624 43.47 73.791 38.3634 73.791 32.1482C73.791 26.8053 71.708 22.1167 67.5421 18.0823C63.4124 14.0115 58.6126 11.9761 53.1425 11.9761H11.737V90.4836H7.82467V8.05073H53.1425C57.4534 8.05073 61.4925 9.15929 65.2599 11.3764C69.0636 13.5935 72.0884 16.5739 74.3344 20.3175C76.5803 24.0248 77.7033 27.9684 77.7033 32.1482C77.7033 39.3084 75.2762 45.3055 70.422 50.1395C65.6041 54.9372 59.8442 57.336 53.1425 57.336H29.5599V53.4106ZM29.5599 61.2614H53.1425C58.2141 61.2614 62.9234 60.0075 67.2704 57.4996C71.6175 54.9917 75.0951 51.5025 77.7033 47.0319C80.3115 42.525 81.6157 37.5638 81.6157 32.1482C81.6157 27.2415 80.3115 22.6437 77.7033 18.3548C75.1313 14.0297 71.6537 10.5768 67.2704 7.99622C62.8872 5.41564 58.1779 4.12536 53.1425 4.12536H3.91233V90.4836H0V0.199982H53.1425C58.8299 0.199982 64.1732 1.672 69.1722 4.61603C74.1713 7.52372 78.138 11.4491 81.0723 16.3922C84.0427 21.2989 85.528 26.5509 85.528 32.1482C85.528 38.6178 84.1333 44.3059 81.344 49.2127C78.5908 54.1194 74.8415 57.9539 70.096 60.7162L80.2029 90.4836H76.0732L66.401 62.5699C64.952 63.1514 63.8471 63.5512 63.0864 63.7693L72.1608 90.4836H68.0312L59.1741 64.6961C58.848 64.7688 57.6888 64.896 55.6964 65.0777L64.1188 90.4836H59.9891L51.6754 65.1868H48.1435L56.0768 90.4836H51.9471L43.9594 65.1868H29.5599V61.2614ZM27.3863 90.4836H23.474V23.7522H53.1425C55.5696 23.7522 57.6526 24.5882 59.3914 26.2601C61.1665 27.8957 62.054 29.8584 62.054 32.1482C62.054 38.4724 59.0835 41.6345 53.1425 41.6345H29.5599V37.7091H53.1425C54.7002 37.7091 55.9138 37.3093 56.7832 36.5097C57.6888 35.6738 58.1416 34.2199 58.1416 32.1482C58.1416 30.8761 57.6526 29.822 56.6745 28.9861C55.7327 28.1138 54.5553 27.6776 53.1425 27.6776H27.3863V90.4836Z" fill="#5BFFDA"/>
<path d="M113.458 90.4836H109.545V0.199982H113.458V90.4836ZM105.633 90.4836H101.721V0.199982H105.633V90.4836ZM97.8084 90.4836H93.896V0.199982H97.8084V90.4836ZM121.282 70.8568H162.905V74.7821H121.282V78.7075H162.905V82.6329H121.282V86.5583H162.905V90.4836H117.37V0.199982H162.905V4.12536H121.282V8.05073H162.905V11.9761H121.282V15.9015H162.905V19.8269H121.282V35.5284H142.637V39.4537H121.282V43.3791H142.637V47.3045H121.282V51.2299H142.637V55.1553H121.282V70.8568Z" fill="#5BFFDA"/>
<path d="M240.608 59.0261C240.608 57.6086 240.173 56.6636 239.304 56.1911C238.47 55.7186 237.239 55.4824 235.609 55.4824H210.396V51.557H235.609C241.55 51.557 244.52 54.0467 244.52 59.0261C244.52 61.8248 243.705 63.842 242.075 65.0777C240.445 66.3135 238.289 66.9314 235.609 66.9314H210.396V63.006H235.609C238.941 63.006 240.608 61.6794 240.608 59.0261ZM208.222 90.4836H204.31V23.7522H235.609C238.072 23.7522 240.173 24.5155 241.912 26.042C243.651 27.5322 244.52 29.4041 244.52 31.6575C244.52 34.6379 243.705 36.8005 242.075 38.1453C240.445 39.4537 238.289 40.108 235.609 40.108H210.396V36.1826H235.609C238.941 36.1826 240.608 34.6742 240.608 31.6575C240.608 30.4217 240.137 29.4586 239.195 28.768C238.253 28.0411 237.058 27.6776 235.609 27.6776H208.222V90.4836ZM210.396 44.0334H235.609C239.195 44.0334 242.22 42.9611 244.683 40.8167C247.183 38.636 248.432 35.5829 248.432 31.6575C248.432 28.4954 247.128 25.7331 244.52 23.3706C241.948 21.0081 238.978 19.8269 235.609 19.8269H200.398V90.4836H196.485V15.9015H235.609C240.064 15.9015 243.959 17.4825 247.291 20.6447C250.66 23.7704 252.345 27.4414 252.345 31.6575C252.345 34.965 251.566 37.8545 250.008 40.3261C248.487 42.7976 246.422 44.7058 243.814 46.0506C249.501 48.0859 252.345 52.2294 252.345 58.4809C252.345 63.424 250.715 67.3857 247.454 70.3661C244.194 73.3101 240.245 74.7821 235.609 74.7821H210.396V70.8568H235.609C239.195 70.8568 242.22 69.7845 244.683 67.6401C247.183 65.4594 248.432 62.4063 248.432 58.4809C248.432 55.8277 247.491 53.4833 245.607 51.448C243.723 49.4126 240.952 48.2313 237.293 47.9042C236.931 47.9406 236.369 47.9587 235.609 47.9587H210.396V44.0334ZM260.169 31.6575C260.169 36.746 258.376 41.3437 254.79 45.4509C258.376 49.4489 260.169 53.7923 260.169 58.4809C260.169 63.0242 259.028 67.1676 256.746 70.9113C254.5 74.6186 251.493 77.5081 247.726 79.5798C243.995 81.6152 239.956 82.6329 235.609 82.6329H210.396V78.7075H235.609C241.26 78.7075 246.114 76.8175 250.171 73.0375C254.228 69.2212 256.257 64.369 256.257 58.4809C256.257 56.3728 255.714 54.0467 254.627 51.5025C253.576 48.9219 252.109 46.9592 250.226 45.6144C254.247 41.8344 256.257 37.1821 256.257 31.6575C256.257 26.351 254.192 21.7532 250.063 17.8642C245.933 13.9388 241.115 11.9761 235.609 11.9761H192.573V90.4836H188.661V8.05073H235.609C239.919 8.05073 243.959 9.12294 247.726 11.2674C251.53 13.3754 254.554 16.2649 256.8 19.9359C259.046 23.5705 260.169 27.4777 260.169 31.6575ZM259.246 45.6689C262.47 41.3437 264.082 36.6733 264.082 31.6575C264.082 26.7508 262.778 22.1894 260.169 17.9732C257.597 13.7207 254.12 10.3587 249.736 7.88718C245.353 5.3793 240.644 4.12536 235.609 4.12536H184.748V90.4836H180.836V0.199982H235.609C241.332 0.199982 246.675 1.61748 251.638 4.45247C256.637 7.28747 260.604 11.1402 263.538 16.0105C266.509 20.8446 267.994 26.0602 267.994 31.6575C267.994 37.0004 266.491 41.689 263.484 45.7234C266.491 49.9032 267.994 54.1557 267.994 58.4809C267.994 63.3513 267.125 67.8219 265.386 71.8926C263.647 75.927 261.292 79.2891 258.322 81.9787C255.388 84.6683 251.964 86.7582 248.052 88.2484C244.14 89.7385 239.992 90.4836 235.609 90.4836H210.396V86.5583H235.609C239.412 86.5583 243.053 85.8495 246.531 84.432C250.008 82.9782 253.033 81.0155 255.605 78.544C258.177 76.0724 260.224 73.092 261.745 69.6028C263.303 66.1136 264.082 62.4063 264.082 58.4809C264.082 56.7363 263.665 54.6464 262.832 52.2112C262.035 49.7397 260.84 47.5589 259.246 45.6689Z" fill="white"/>
<path d="M306.357 45.5599H329.939C333.526 45.5599 336.55 44.3968 339.014 42.0707C341.513 39.7445 342.763 36.437 342.763 32.1482C342.763 28.9861 341.459 26.1511 338.851 23.6432C336.243 21.099 333.272 19.8269 329.939 19.8269H296.358V90.4836H292.446V15.9015H329.939C334.359 15.9015 338.253 17.5552 341.622 20.8627C344.991 24.1339 346.675 27.8957 346.675 32.1482C346.675 37.382 345.045 41.58 341.785 44.7421C338.525 47.9042 334.576 49.4853 329.939 49.4853H306.357V45.5599ZM306.357 53.4106H329.939C335.59 53.4106 340.445 51.4298 344.502 47.4681C348.559 43.47 350.588 38.3634 350.588 32.1482C350.588 26.8053 348.505 22.1167 344.339 18.0823C340.209 14.0115 335.409 11.9761 329.939 11.9761H288.534V90.4836H284.621V8.05073H329.939C334.25 8.05073 338.289 9.15929 342.057 11.3764C345.86 13.5935 348.885 16.5739 351.131 20.3175C353.377 24.0248 354.5 27.9684 354.5 32.1482C354.5 39.3084 352.073 45.3055 347.219 50.1395C342.401 54.9372 336.641 57.336 329.939 57.336H306.357V53.4106ZM306.357 61.2614H329.939C335.011 61.2614 339.72 60.0075 344.067 57.4996C348.414 54.9917 351.892 51.5025 354.5 47.0319C357.108 42.525 358.412 37.5638 358.412 32.1482C358.412 27.2415 357.108 22.6437 354.5 18.3548C351.928 14.0297 348.45 10.5768 344.067 7.99622C339.684 5.41564 334.975 4.12536 329.939 4.12536H280.709V90.4836H276.797V0.199982H329.939C335.627 0.199982 340.97 1.672 345.969 4.61603C350.968 7.52372 354.935 11.4491 357.869 16.3922C360.84 21.2989 362.325 26.5509 362.325 32.1482C362.325 38.6178 360.93 44.3059 358.141 49.2127C355.388 54.1194 351.638 57.9539 346.893 60.7162L357 90.4836H352.87L343.198 62.5699C341.749 63.1514 340.644 63.5512 339.883 63.7693L348.958 90.4836H344.828L335.971 64.6961C335.645 64.7688 334.486 64.896 332.493 65.0777L340.916 90.4836H336.786L328.472 65.1868H324.94L332.874 90.4836H328.744L320.756 65.1868H306.357V61.2614ZM304.183 90.4836H300.271V23.7522H329.939C332.366 23.7522 334.449 24.5882 336.188 26.2601C337.963 27.8957 338.851 29.8584 338.851 32.1482C338.851 38.4724 335.88 41.6345 329.939 41.6345H306.357V37.7091H329.939C331.497 37.7091 332.711 37.3093 333.58 36.5097C334.486 35.6738 334.938 34.2199 334.938 32.1482C334.938 30.8761 334.449 29.822 333.471 28.9861C332.529 28.1138 331.352 27.6776 329.939 27.6776H304.183V90.4836Z" fill="white"/>
<path d="M409.544 63.9874L411.12 60.062H424.487L426.063 63.9874H409.544ZM406.502 71.8381L408.023 67.9127H427.53L429.215 71.8381H406.502ZM403.459 79.6889L404.98 75.7635H430.628L432.258 79.6889H403.459ZM371.671 90.4836H367.433L403.024 0.199982H407.262L442.799 90.4836H438.615L405.143 5.48834L371.671 90.4836ZM405.632 14.8111L407.86 19.8269L380.039 90.4836H375.855L405.632 14.8111ZM409.979 25.1697L412.044 30.5671L388.516 90.4836H384.277L409.979 25.1697ZM414.109 35.9645L416.174 41.471L396.884 90.4836H392.7L414.109 35.9645ZM468.066 90.4836H463.828L428.291 0.199982H432.475L468.066 90.4836ZM424.053 0.199982L459.644 90.4836H455.46L419.869 0.199982H424.053ZM415.63 0.199982L451.222 90.4836H446.983L411.446 0.199982H415.63Z" fill="white"/>
<path d="M498.387 0.199982H502.299V90.4836H498.387V0.199982ZM490.562 0.199982H494.475V90.4836H490.562V0.199982ZM482.738 0.199982H486.65V90.4836H482.738V0.199982ZM474.913 0.199982H478.825V90.4836H474.913V0.199982Z" fill="white"/>
<path d="M576.525 47.0319L572.613 40.5441V0.199982H576.525V47.0319ZM584.35 59.8984L580.437 53.3016V0.199982H584.35V59.8984ZM592.174 72.9285L588.262 66.2772V0.199982H592.174V72.9285ZM536.098 43.6517L540.01 50.1395V90.4836H536.098V43.6517ZM528.273 30.7852L532.185 37.382V90.4836H528.273V30.7852ZM520.448 17.7551L524.361 24.4065V90.4836H520.448V17.7551ZM521.807 0.199982H526.371L581.687 90.4836H577.123L521.807 0.199982ZM531.044 0.199982H535.663L590.925 90.4836H586.252L531.044 0.199982ZM540.227 0.199982H544.792L596.087 84.1049V0.199982H599.999V90.4836C599.999 90.4836 598.46 90.4836 595.38 90.4836L540.227 0.199982ZM516.536 6.57872V90.4836H512.624V0.199982C512.624 0.199982 514.181 0.199982 517.297 0.199982L572.45 90.4836H567.94L516.536 6.57872Z" fill="white"/>
</svg>
